<?xml version="1.0" encoding="UTF-8" standalone="no"?>
<!-- Created with Inkscape (http://www.inkscape.org/) -->

<svg
   width="219.76915mm"
   height="123.39979mm"
   viewBox="0 0 219.76915 123.39979"
   version="1.1"
   id="svg1"
   inkscape:version="1.4 (e7c3feb1, 2024-10-09)"
   sodipodi:docname="arbol_SO.svg"
   inkscape:export-filename="arbol_SO.png"
   inkscape:export-xdpi="96"
   inkscape:export-ydpi="96"
   xmlns:inkscape="http://www.inkscape.org/namespaces/inkscape"
   xmlns:sodipodi="http://sodipodi.sourceforge.net/DTD/sodipodi-0.dtd"
   xmlns="http://www.w3.org/2000/svg"
   xmlns:svg="http://www.w3.org/2000/svg">
  <sodipodi:namedview
     id="namedview1"
     pagecolor="#ffffff"
     bordercolor="#000000"
     borderopacity="0.25"
     inkscape:showpageshadow="2"
     inkscape:pageopacity="0.0"
     inkscape:pagecheckerboard="0"
     inkscape:deskcolor="#d1d1d1"
     inkscape:document-units="mm"
     showgrid="true"
     inkscape:zoom="0.84110306"
     inkscape:cx="193.79314"
     inkscape:cy="211.62686"
     inkscape:window-width="1776"
     inkscape:window-height="929"
     inkscape:window-x="0"
     inkscape:window-y="30"
     inkscape:window-maximized="0"
     inkscape:current-layer="layer1">
    <inkscape:grid
       id="grid1"
       units="mm"
       originx="9.7691474"
       originy="-86.655334"
       spacingx="0.99999998"
       spacingy="1"
       empcolor="#0099e5"
       empopacity="0.30196078"
       color="#0099e5"
       opacity="0.14901961"
       empspacing="5"
       enabled="true"
       visible="true" />
  </sodipodi:namedview>
  <defs
     id="defs1">
    <marker
       style="overflow:visible"
       id="marker53"
       refX="0"
       refY="0"
       orient="auto-start-reverse"
       inkscape:stockid="Triangle arrow"
       markerWidth="1"
       markerHeight="1"
       viewBox="0 0 1 1"
       inkscape:isstock="true"
       inkscape:collect="always"
       preserveAspectRatio="xMidYMid">
      <path
         transform="scale(0.5)"
         style="fill:context-stroke;fill-rule:evenodd;stroke:context-stroke;stroke-width:1pt"
         d="M 5.77,0 -2.88,5 V -5 Z"
         id="path53" />
    </marker>
    <marker
       style="overflow:visible"
       id="marker51"
       refX="0"
       refY="0"
       orient="auto-start-reverse"
       inkscape:stockid="Triangle arrow"
       markerWidth="1"
       markerHeight="1"
       viewBox="0 0 1 1"
       inkscape:isstock="true"
       inkscape:collect="always"
       preserveAspectRatio="xMidYMid">
      <path
         transform="scale(0.5)"
         style="fill:context-stroke;fill-rule:evenodd;stroke:context-stroke;stroke-width:1pt"
         d="M 5.77,0 -2.88,5 V -5 Z"
         id="path51" />
    </marker>
    <marker
       style="overflow:visible"
       id="Triangle"
       refX="0"
       refY="0"
       orient="auto-start-reverse"
       inkscape:stockid="Triangle arrow"
       markerWidth="1"
       markerHeight="1"
       viewBox="0 0 1 1"
       inkscape:isstock="true"
       inkscape:collect="always"
       preserveAspectRatio="xMidYMid">
      <path
         transform="scale(0.5)"
         style="fill:context-stroke;fill-rule:evenodd;stroke:context-stroke;stroke-width:1pt"
         d="M 5.77,0 -2.88,5 V -5 Z"
         id="path135" />
    </marker>
  </defs>
  <g
     inkscape:label="Layer 1"
     inkscape:groupmode="layer"
     id="layer1"
     transform="translate(9.769147,-86.655334)">
    <g
       id="g37"
       transform="translate(-7.5938087,-2.9410312)">
      <path
         id="path5"
         style="fill:#d38d5f;stroke:#373435;stroke-width:0.3527;stroke-linecap:butt;stroke-linejoin:miter;stroke-miterlimit:4;stroke-dasharray:none;stroke-opacity:1"
         d="m 22.593809,152.64936 h -8.000001 c 3.136457,-0.48032 2.194458,-6.07254 1.700687,-8.21717 C 15.602191,141.4258 15.39569,137.231 15.211873,133.61425 15.145653,132.30625 15.08212,131.07303 15,130 c -0.382876,-4.98846 -2.313451,-5.27837 -4.406192,-7.35064 -2.0927397,-2.07228 -5.1514217,-5.33697 -6.9999997,-8 -0.01778,-0.84315 -0.680802,-1.06823 0.560342,-1.3517 0.929116,1.22101 1.65703,1.35962 3.439658,4.3517 0.938271,0.93996 1.23454,1.30307 2.22563,2.29647 0.6631357,0.66433 2.0309947,0.92967 4.7743697,3.70353 0,-2 -1.375093,-3.36931 -1.375093,-5.00009 0,-4.11089 -0.976962,-7.34773 -3.6249067,-9.99991 l -3,-3 c -2.731036,-3.54517 -1.139154,-0.57974 -2.762635,-3.37842 0.04113,0.20343 1.447684,0.50624 3.762635,2.37842 1.180816,1.11994 1.931383,1.95269 2,2 1.0320827,0.71158 4.1374617,5.9816 4.2729277,7.29684 0.189861,1.84082 0.609039,7.04346 1.100708,6.00583 0.914094,-1.92862 0.605338,-6.59444 0.639237,-7.22178 1.552825,-5.50081 1.660322,-20.090478 -1.012873,-22.580897 0.74473,-0.18738 1.705419,-0.20854 2,1.5 0.799126,4.63583 1.01288,10.868277 1,13.000007 -0.036,6.14073 -2.090023,10.26813 -0.975819,16.59407 1.470539,-2.12765 2.189021,-6.16846 3.237529,-8.26978 0.911072,-1.82542 1.456758,-3.4645 1.456758,-5.83789 0,-4.33084 2.224622,-4.88886 2.590023,-8.432564 0.21141,-2.046434 1.922831,-6.533297 3.70714,-6.594145 -2.011211,3.205252 -2.045412,5.682169 -2.73614,8.864299 -0.561043,2.58742 -2.266011,5.72709 -2.266011,8.27081 0,6.67804 -4.067953,9.78993 -5.179529,15.72927 2.328529,-1.84332 3.219166,-1.81387 5.827034,-2.83807 1.223653,-0.48071 2.988174,-2.16708 4.339016,-3.486 1.512058,-1.47516 2.632794,-2.98667 4.159174,-5.67571 0.76872,-1.35476 2.610424,-3.58115 3.642155,-5.18883 l -0.801329,1.86454 c -1.680821,5.48155 -8.681323,13.86831 -13.281533,15.00006 -2.629942,0.64682 -2.943062,2.03994 -3.122807,4.24419 -0.216534,2.6639 -0.4771,6.77293 0.695048,11.72796 1.341643,5.6745 1.40586,8.60137 3.709292,12.02779"
         sodipodi:nodetypes="ccccczcccscsccccsccccccccscccscccccccccc" />
      <path
         id="path12"
         d="m 28.11212,94.415225 c 5.055963,-0.20165 5.108388,-1.79817 0.890443,-1.62179 -1.442158,0.0607 -0.430571,-1.60929 -0.646711,-1.88387 -0.237032,-0.3013 -1.376462,-1.60376 -1.376462,1.23547 0,0.98932 0.206285,0.009 -1.61875,-0.32433 -0.56827,-0.10386 -2.83268,-0.63143 -2.83268,0.1619 0,0.4607 0.392599,1.29878 0.809375,1.45976 0.212987,0.0817 -5.324923,-1.66181 -4.047004,0.24325 0.436878,0.6509 -0.711357,-1.02434 -0.734876,0.97076 -0.0026,0.20257 -0.05348,0.51822 -0.214037,-0.0391 -0.459872,-1.59244 -2.570947,2.24954 -0.426499,1.90599 2.536916,-0.40621 2.668309,0.10754 1.577624,1.33787 -0.993061,1.121472 6.727795,-0.30183 7.810202,-1.33787 0.02562,-0.0246 3.126209,1.780142 2.994817,-0.32447 -1.350447,-0.81754 -0.095,-0.0448 -2.185442,-1.78357 z"
         style="fill:#00ff00;fill-opacity:1;fill-rule:nonzero;stroke:#373435;stroke-width:0.3527;stroke-linecap:butt;stroke-linejoin:miter;stroke-miterlimit:4;stroke-dasharray:none;stroke-opacity:1" />
      <path
         id="path13"
         d="m 14.065529,97.377795 c -1.347294,-0.77121 -5.2726288,-5.62554 -1.861036,-5.75664 2.607211,-0.1003 0.406001,1.35998 2.346529,-1.05408 0.929992,-1.15584 3.346422,-0.98209 4.208616,0.0812 1.154804,1.42383 1.806115,0.4191 3.804192,0.89165 2.008458,0.47558 -0.186314,1.49214 0.161744,1.70288 0.774425,0.46899 1.756842,2.23413 1.133256,3.24293 -0.568139,0.91982 -2.401977,0 -0.486019,0 2.929647,0 2.428124,3.243462 0.08107,3.243462 -0.726204,0 -4.427253,-0.18665 -4.451429,0 -0.198665,1.528603 -1.945259,2.044853 -3.318173,0.972743 -1.371864,-1.071463 -2.173618,1.14661 -3.642054,-0.32447 -0.941292,-0.942993 0.355678,-1.864913 -0.161612,-1.864913 -2.4743738,0 -8.0678619,-0.15058 -9.9550439,-1.459242 -2.00162597,-1.38815 2.08992,-3.04022 2.832679,-2.02681 0.729357,0.99445 0.25963,-1.86031 2.8325481,-1.21651 1.254399,0.31419 -0.108267,1.76619 1.537812,1.21651 1.3369128,-0.44635 2.8977178,-1.23455 3.0758858,0.72962 0.01327,0.1486 1.956426,1.30496 1.861036,1.62166 z"
         style="fill:#00ff00;fill-opacity:1;fill-rule:nonzero;stroke:#373435;stroke-width:0.3527;stroke-linecap:butt;stroke-linejoin:miter;stroke-miterlimit:4;stroke-dasharray:none;stroke-opacity:1" />
      <path
         id="path14"
         d="m 5.1441451,107.83766 -0.161612,1.62166 c -0.09552,-1.04881 0.374073,-0.57113 -0.647763,-0.32433 -2.398428,0.57943 -7.159285,-3.89186 -3.39924097,-3.89186 1.60744997,0 -4.11572203,-1.49359 -2.42772903,-3.40536 1.03944203,-1.17689 4.435004,-0.85914 4.532103,-0.97274 0.216534,-0.25299 4.6186901,-0.73949 3.884735,1.2972 -0.239659,0.66486 -2.015553,0.64893 -0.323882,0.64893 0.5836441,0 6.4920779,-0.52085 5.8274969,0.81031 -0.686786,1.37644 -1.410493,0.561 0.647631,0.97326 3.189935,0.63866 0.808981,2.4321 0.971118,2.2702 0.407578,-0.40832 1.769193,1.62166 -0.162137,1.62166 -0.664712,0 -1.37147,-0.95839 -1.618355,-0.64893 -1.978501,2.47778 -3.9288828,-0.46425 -4.5324978,-0.1619 -0.6292361,0.31512 -2.4779211,1.50649 -2.5898671,0.1619 z"
         style="fill:#00ff00;fill-opacity:1;fill-rule:nonzero;stroke:#373435;stroke-width:0.3527;stroke-linecap:butt;stroke-linejoin:miter;stroke-miterlimit:4;stroke-dasharray:none;stroke-opacity:1" />
      <path
         id="path15"
         d="m 4.5775831,116.02693 c 0.196562,0.78819 1.914381,2.75643 -0.323356,2.75643 -2.17677,0 -1.668021,0.6413 0,1.6218 2.533894,1.4895 -0.02523,1.19795 -1.376068,0.97273 -1.315496,-0.21956 0.663661,-1.43146 -2.75200397,-1.94612 -1.67735003,-0.25247 1.01316297,0.18309 -1.21379903,-0.72962 -2.546771,-1.04329 1.19987103,-2.37958 -0.161744,-4.21567 -0.864822,-1.16662 0.31100503,-1.76158 0.242812,-2.51384 -0.137041,-1.51268 2.265986,-0.23549 2.265986,-1.13477 0,-0.41647 0.451069,-1.2972 0.890444,-1.2972 2.360982,0 3.743619,2.24637 5.4225461,-0.48703 1.196324,-1.94757 4.3379058,1.40474 4.6130408,1.45976 1.403266,0.28129 3.458237,2.21097 1.942104,3.7293 -0.797023,0.79912 -4.9081468,-1.27613 -4.3702278,-0.40515 0.168839,0.273 0.3037788,1.22941 0.08107,1.54045 -0.830003,1.15899 -1.640823,0.9497 -2.670936,0.72962 -2.7279601,-0.58246 -1.7866681,-0.61287 -2.5898671,-0.0807 z"
         style="fill:#00ff00;fill-opacity:1;fill-rule:nonzero;stroke:#373435;stroke-width:0.3527;stroke-linecap:butt;stroke-linejoin:miter;stroke-miterlimit:4;stroke-dasharray:none;stroke-opacity:1" />
      <path
         id="path30"
         d="m 26.268033,108.24334 c -0.595337,-1.889 1.158878,-3.3514 2.347055,-2.02734 0.401403,0.4478 0.268434,-0.3121 0.484574,-0.58667 0.237031,-0.30077 2.021597,-1.88032 2.267037,-0.14295 0.23033,1.63193 -1.09686,1.38723 0.728174,1.05408 0.56827,-0.10333 2.83268,-0.63142 2.83268,0.16243 0,0.46017 -0.3926,1.29878 -0.809375,1.45923 -0.212986,0.0823 5.324923,-1.66181 4.047004,0.24325 -0.436878,0.65091 0.711356,-1.02433 0.734876,0.97076 0.0026,0.20258 0.05348,0.51823 0.214037,-0.0391 0.459872,-1.59244 2.570948,2.24953 0.426498,1.90598 -2.536916,-0.4062 -2.667782,0.10754 -1.577623,1.33787 0.993061,1.12148 -6.727269,-0.30182 -7.810202,-1.33787 -0.02562,-0.0246 -3.126209,1.78015 -2.994817,-0.32446 0.07397,-1.18716 -0.077,-0.0945 -0.889918,-2.67522 z"
         style="fill:#00ff00;fill-opacity:1;fill-rule:nonzero;stroke:#373435;stroke-width:0.3527;stroke-linecap:butt;stroke-linejoin:miter;stroke-miterlimit:4;stroke-dasharray:none;stroke-opacity:1" />
    </g>
    <path
       style="fill:#aaeeff;stroke:#231f20;stroke-width:0.499999"
       d="M 5,150.08751 H 210"
       id="path22" />
    <path
       id="path37"
       style="fill:none;stroke:#231f20;stroke-width:0.5"
       d="m 138.91984,94.999997 c 7.72044,34.177703 7.74857,80.728743 0,114.999993 m -35.83126,0 c -7.748567,-34.27125 -7.72044,-80.82229 0,-114.999993"
       sodipodi:nodetypes="cccc" />
    <g
       id="g43"
       transform="matrix(0.65945942,0,0,-0.65945942,182.47476,250.84114)"
       style="stroke-width:1.51639">
      <path
         id="path38"
         style="fill:#d38d5f;stroke:#373435;stroke-width:0.534832;stroke-linecap:butt;stroke-linejoin:miter;stroke-miterlimit:4;stroke-dasharray:none;stroke-opacity:1"
         d="m 22.593809,152.64936 h -8.000001 c 3.136457,-0.48032 2.194458,-6.07254 1.700687,-8.21717 C 15.602191,141.4258 15.39569,137.231 15.211873,133.61425 15.145653,132.30625 15.08212,131.07303 15,130 c -0.382876,-4.98846 -2.313451,-5.27837 -4.406192,-7.35064 -2.0927397,-2.07228 -5.1514217,-5.33697 -6.9999997,-8 -0.01778,-0.84315 -0.680802,-1.06823 0.560342,-1.3517 0.929116,1.22101 1.65703,1.35962 3.439658,4.3517 0.938271,0.93996 1.23454,1.30307 2.22563,2.29647 0.6631357,0.66433 2.0309947,0.92967 4.7743697,3.70353 0,-2 -1.375093,-3.36931 -1.375093,-5.00009 0,-4.11089 -0.976962,-7.34773 -3.6249067,-9.99991 l -3,-3 c -2.731036,-3.54517 -1.139154,-0.57974 -2.762635,-3.37842 0.04113,0.20343 1.447684,0.50624 3.762635,2.37842 1.180816,1.11994 1.931383,1.95269 2,2 1.0320827,0.71158 4.1374617,5.9816 4.2729277,7.29684 0.189861,1.84082 0.609039,7.04346 1.100708,6.00583 0.914094,-1.92862 0.605338,-6.59444 0.639237,-7.22178 1.552825,-5.50081 1.660322,-20.090478 -1.012873,-22.580897 0.74473,-0.18738 1.705419,-0.20854 2,1.5 0.799126,4.63583 1.01288,10.868277 1,13.000007 -0.036,6.14073 -2.090023,10.26813 -0.975819,16.59407 1.470539,-2.12765 2.189021,-6.16846 3.237529,-8.26978 0.911072,-1.82542 1.456758,-3.4645 1.456758,-5.83789 0,-4.33084 2.224622,-4.88886 2.590023,-8.432564 0.21141,-2.046434 1.922831,-6.533297 3.70714,-6.594145 -2.011211,3.205252 -2.045412,5.682169 -2.73614,8.864299 -0.561043,2.58742 -2.266011,5.72709 -2.266011,8.27081 0,6.67804 -4.067953,9.78993 -5.179529,15.72927 2.328529,-1.84332 3.219166,-1.81387 5.827034,-2.83807 1.223653,-0.48071 2.988174,-2.16708 4.339016,-3.486 1.512058,-1.47516 2.632794,-2.98667 4.159174,-5.67571 0.76872,-1.35476 2.610424,-3.58115 3.642155,-5.18883 l -0.801329,1.86454 c -1.680821,5.48155 -8.681323,13.86831 -13.281533,15.00006 -2.629942,0.64682 -2.943062,2.03994 -3.122807,4.24419 -0.216534,2.6639 -0.4771,6.77293 0.695048,11.72796 1.341643,5.6745 1.40586,8.60137 3.709292,12.02779"
         sodipodi:nodetypes="ccccczcccscsccccsccccccccscccscccccccccc" />
      <path
         id="path39"
         d="m 28.11212,94.415225 c 5.055963,-0.20165 5.108388,-1.79817 0.890443,-1.62179 -1.442158,0.0607 -0.430571,-1.60929 -0.646711,-1.88387 -0.237032,-0.3013 -1.376462,-1.60376 -1.376462,1.23547 0,0.98932 0.206285,0.009 -1.61875,-0.32433 -0.56827,-0.10386 -2.83268,-0.63143 -2.83268,0.1619 0,0.4607 0.392599,1.29878 0.809375,1.45976 0.212987,0.0817 -5.324923,-1.66181 -4.047004,0.24325 0.436878,0.6509 -0.711357,-1.02434 -0.734876,0.97076 -0.0026,0.20257 -0.05348,0.51822 -0.214037,-0.0391 -0.459872,-1.59244 -2.570947,2.24954 -0.426499,1.90599 2.536916,-0.40621 2.668309,0.10754 1.577624,1.33787 -0.993061,1.121472 6.727795,-0.30183 7.810202,-1.33787 0.02562,-0.0246 3.126209,1.780142 2.994817,-0.32447 -1.350447,-0.81754 -0.095,-0.0448 -2.185442,-1.78357 z"
         style="fill:#00ff00;fill-opacity:1;fill-rule:nonzero;stroke:#373435;stroke-width:0.534832;stroke-linecap:butt;stroke-linejoin:miter;stroke-miterlimit:4;stroke-dasharray:none;stroke-opacity:1" />
      <path
         id="path40"
         d="m 14.065529,97.377795 c -1.347294,-0.77121 -5.2726288,-5.62554 -1.861036,-5.75664 2.607211,-0.1003 0.406001,1.35998 2.346529,-1.05408 0.929992,-1.15584 3.346422,-0.98209 4.208616,0.0812 1.154804,1.42383 1.806115,0.4191 3.804192,0.89165 2.008458,0.47558 -0.186314,1.49214 0.161744,1.70288 0.774425,0.46899 1.756842,2.23413 1.133256,3.24293 -0.568139,0.91982 -2.401977,0 -0.486019,0 2.929647,0 2.428124,3.243462 0.08107,3.243462 -0.726204,0 -4.427253,-0.18665 -4.451429,0 -0.198665,1.528603 -1.945259,2.044853 -3.318173,0.972743 -1.371864,-1.071463 -2.173618,1.14661 -3.642054,-0.32447 -0.941292,-0.942993 0.355678,-1.864913 -0.161612,-1.864913 -2.4743738,0 -8.0678619,-0.15058 -9.9550439,-1.459242 -2.00162597,-1.38815 2.08992,-3.04022 2.832679,-2.02681 0.729357,0.99445 0.25963,-1.86031 2.8325481,-1.21651 1.254399,0.31419 -0.108267,1.76619 1.537812,1.21651 1.3369128,-0.44635 2.8977178,-1.23455 3.0758858,0.72962 0.01327,0.1486 1.956426,1.30496 1.861036,1.62166 z"
         style="fill:#00ff00;fill-opacity:1;fill-rule:nonzero;stroke:#373435;stroke-width:0.534832;stroke-linecap:butt;stroke-linejoin:miter;stroke-miterlimit:4;stroke-dasharray:none;stroke-opacity:1" />
      <path
         id="path41"
         d="m 5.1441451,107.83766 -0.161612,1.62166 c -0.09552,-1.04881 0.374073,-0.57113 -0.647763,-0.32433 -2.398428,0.57943 -7.159285,-3.89186 -3.39924097,-3.89186 1.60744997,0 -4.11572203,-1.49359 -2.42772903,-3.40536 1.03944203,-1.17689 4.435004,-0.85914 4.532103,-0.97274 0.216534,-0.25299 4.6186901,-0.73949 3.884735,1.2972 -0.239659,0.66486 -2.015553,0.64893 -0.323882,0.64893 0.5836441,0 6.4920779,-0.52085 5.8274969,0.81031 -0.686786,1.37644 -1.410493,0.561 0.647631,0.97326 3.189935,0.63866 0.808981,2.4321 0.971118,2.2702 0.407578,-0.40832 1.769193,1.62166 -0.162137,1.62166 -0.664712,0 -1.37147,-0.95839 -1.618355,-0.64893 -1.978501,2.47778 -3.9288828,-0.46425 -4.5324978,-0.1619 -0.6292361,0.31512 -2.4779211,1.50649 -2.5898671,0.1619 z"
         style="fill:#00ff00;fill-opacity:1;fill-rule:nonzero;stroke:#373435;stroke-width:0.534832;stroke-linecap:butt;stroke-linejoin:miter;stroke-miterlimit:4;stroke-dasharray:none;stroke-opacity:1" />
      <path
         id="path42"
         d="m 4.5775831,116.02693 c 0.196562,0.78819 1.914381,2.75643 -0.323356,2.75643 -2.17677,0 -1.668021,0.6413 0,1.6218 2.533894,1.4895 -0.02523,1.19795 -1.376068,0.97273 -1.315496,-0.21956 0.663661,-1.43146 -2.75200397,-1.94612 -1.67735003,-0.25247 1.01316297,0.18309 -1.21379903,-0.72962 -2.546771,-1.04329 1.19987103,-2.37958 -0.161744,-4.21567 -0.864822,-1.16662 0.31100503,-1.76158 0.242812,-2.51384 -0.137041,-1.51268 2.265986,-0.23549 2.265986,-1.13477 0,-0.41647 0.451069,-1.2972 0.890444,-1.2972 2.360982,0 3.743619,2.24637 5.4225461,-0.48703 1.196324,-1.94757 4.3379058,1.40474 4.6130408,1.45976 1.403266,0.28129 3.458237,2.21097 1.942104,3.7293 -0.797023,0.79912 -4.9081468,-1.27613 -4.3702278,-0.40515 0.168839,0.273 0.3037788,1.22941 0.08107,1.54045 -0.830003,1.15899 -1.640823,0.9497 -2.670936,0.72962 -2.7279601,-0.58246 -1.7866681,-0.61287 -2.5898671,-0.0807 z"
         style="fill:#00ff00;fill-opacity:1;fill-rule:nonzero;stroke:#373435;stroke-width:0.534832;stroke-linecap:butt;stroke-linejoin:miter;stroke-miterlimit:4;stroke-dasharray:none;stroke-opacity:1" />
      <path
         id="path43"
         d="m 26.268033,108.24334 c -0.595337,-1.889 1.158878,-3.3514 2.347055,-2.02734 0.401403,0.4478 0.268434,-0.3121 0.484574,-0.58667 0.237031,-0.30077 2.021597,-1.88032 2.267037,-0.14295 0.23033,1.63193 -1.09686,1.38723 0.728174,1.05408 0.56827,-0.10333 2.83268,-0.63142 2.83268,0.16243 0,0.46017 -0.3926,1.29878 -0.809375,1.45923 -0.212986,0.0823 5.324923,-1.66181 4.047004,0.24325 -0.436878,0.65091 0.711356,-1.02433 0.734876,0.97076 0.0026,0.20258 0.05348,0.51823 0.214037,-0.0391 0.459872,-1.59244 2.570948,2.24953 0.426498,1.90598 -2.536916,-0.4062 -2.667782,0.10754 -1.577623,1.33787 0.993061,1.12148 -6.727269,-0.30182 -7.810202,-1.33787 -0.02562,-0.0246 -3.126209,1.78015 -2.994817,-0.32446 0.07397,-1.18716 -0.077,-0.0945 -0.889918,-2.67522 z"
         style="fill:#00ff00;fill-opacity:1;fill-rule:nonzero;stroke:#373435;stroke-width:0.534832;stroke-linecap:butt;stroke-linejoin:miter;stroke-miterlimit:4;stroke-dasharray:none;stroke-opacity:1" />
    </g>
    <path
       style="fill:none;stroke:#231f20;stroke-width:0.499999;marker-end:url(#Triangle)"
       d="M 25,89.999996 85.000002,120"
       id="path44"
       sodipodi:nodetypes="cc" />
    <path
       style="fill:none;stroke:#231f20;stroke-width:0.499999;marker-end:url(#Triangle)"
       d="M 25,89.999996 75,135"
       id="path45" />
    <path
       style="fill:none;stroke:#231f20;stroke-width:0.499999;marker-end:url(#Triangle)"
       d="M 15,149.70833 60.000001,140"
       id="path46"
       sodipodi:nodetypes="cc" />
    <path
       style="fill:none;stroke:#231f20;stroke-width:0.499999;marker-end:url(#Triangle)"
       d="M 65.000001,149.99999 H 15 L 55.000001,170"
       id="path47" />
    <path
       style="fill:none;stroke:#231f20;stroke-width:0.499999;marker-end:url(#Triangle)"
       d="m 15,149.99999 35,35"
       id="path48" />
    <path
       style="fill:none;stroke:#231f20;stroke-width:0.499999;marker-end:url(#Triangle)"
       d="M 25,89.999996 H 85.000001"
       id="path49" />
    <path
       style="fill:none;stroke:#231f20;stroke-width:0.499999;marker-end:url(#marker51)"
       d="M 15,149.99999 H 65.000001"
       id="path50" />
    <path
       style="fill:none;stroke:#231f20;stroke-width:0.499999;marker-end:url(#marker53)"
       d="M 25,89.999996 85.000001,105"
       id="path52" />
    <path
       style="fill:none;stroke:#231f20;stroke-width:0.499999;marker-start:url(#marker53)"
       d="M 183,187.53884 153.92851,173.18292"
       id="path54"
       sodipodi:nodetypes="cc" />
    <path
       style="fill:none;stroke:#231f20;stroke-width:0.499999;marker-start:url(#marker53)"
       d="M 183,187.53884 158.77376,166.00496"
       id="path55" />
    <path
       style="fill:none;stroke:#231f20;stroke-width:0.499999;marker-start:url(#marker53)"
       d="M 183,187.53884 H 153.92851"
       id="path56" />
    <path
       style="fill:none;stroke:#231f20;stroke-width:0.499999;marker-start:url(#marker53)"
       d="m 183,187.53884 -29.07149,-7.17796"
       id="path57" />
    <path
       style="fill:none;stroke:#231f20;stroke-width:0.499999;marker-start:url(#marker53)"
       d="m 192.09878,150.46674 -45,9.70833"
       id="path58"
       sodipodi:nodetypes="cc" />
    <path
       style="fill:none;stroke:#231f20;stroke-width:0.499999;marker-start:url(#marker53)"
       d="m 192.09878,150.17508 -40,-20.00001"
       id="path59"
       sodipodi:nodetypes="cc" />
    <path
       style="fill:none;stroke:#231f20;stroke-width:0.499999;marker-start:url(#marker53)"
       d="m 192.09878,150.17508 -35,-34.99999"
       id="path60" />
    <text
       xml:space="preserve"
       style="font-style:italic;font-size:12.7px;font-family:'Times New Roman';-inkscape-font-specification:'Times New Roman,  Italic';text-align:start;writing-mode:lr-tb;direction:ltr;text-anchor:start;fill:none;stroke:#231f20;stroke-width:0.499999"
       x="119.68186"
       y="146.99303"
       id="text60"><tspan
         sodipodi:role="line"
         id="tspan60"
         style="font-style:normal;text-align:center;text-anchor:middle;fill:#000000;stroke:none;stroke-width:0.5"
         x="119.68186"
         y="146.99303">Sistema</tspan><tspan
         sodipodi:role="line"
         style="font-style:normal;text-align:center;text-anchor:middle;fill:#000000;stroke:none;stroke-width:0.5"
         x="119.68186"
         y="162.87126"
         id="tspan61">Óptico</tspan></text>
  </g>
</svg>
